# 3ds Max Wavefront OBJ Exporter v0.97b - (c)2007 guruware
# File Created: 01.04.2015 12:03:01

mtllib tube_base.mtl

#
# object Loft001
#

v  33.3333 2.6593 -31.9397
v  33.3333 0.0000 -31.5817
v  50.0000 0.0000 -31.5817
v  50.0000 2.6593 -31.9397
v  33.3333 5.0500 -32.9495
v  50.0000 5.0500 -32.9495
v  33.3333 7.0763 -34.5155
v  50.0000 7.0763 -34.5155
v  33.3333 8.6422 -36.5417
v  50.0000 8.6422 -36.5417
v  33.3333 9.6521 -38.9324
v  50.0000 9.6521 -38.9324
v  33.3333 10.0100 -41.5917
v  50.0000 10.0100 -41.5917
v  33.3333 9.6521 -44.2510
v  50.0000 9.6521 -44.2510
v  33.3333 8.6422 -46.6418
v  50.0000 8.6422 -46.6418
v  33.3333 7.0763 -48.6680
v  50.0000 7.0763 -48.6680
v  33.3333 5.0500 -50.2340
v  50.0000 5.0500 -50.2340
v  33.3333 2.6593 -51.2438
v  50.0000 2.6593 -51.2438
v  33.3333 -0.0000 -51.6017
v  50.0000 -0.0000 -51.6017
v  33.3333 -2.6593 -51.2438
v  50.0000 -2.6593 -51.2438
v  33.3333 -5.0500 -50.2340
v  50.0000 -5.0500 -50.2340
v  33.3333 -7.0763 -48.6680
v  50.0000 -7.0763 -48.6680
v  33.3333 -8.6422 -46.6418
v  50.0000 -8.6422 -46.6418
v  33.3333 -9.6521 -44.2510
v  50.0000 -9.6521 -44.2510
v  33.3333 -10.0100 -41.5917
v  50.0000 -10.0100 -41.5917
v  33.3333 -9.6521 -38.9324
v  50.0000 -9.6521 -38.9324
v  33.3333 -8.6422 -36.5417
v  50.0000 -8.6422 -36.5417
v  33.3333 -7.0763 -34.5155
v  50.0000 -7.0763 -34.5155
v  33.3333 -5.0500 -32.9495
v  50.0000 -5.0500 -32.9495
v  33.3333 -2.6593 -31.9397
v  50.0000 -2.6593 -31.9397
v  16.6667 2.6593 -31.9397
v  16.6667 0.0000 -31.5817
v  16.6667 5.0500 -32.9495
v  16.6667 7.0763 -34.5155
v  16.6667 8.6422 -36.5417
v  16.6667 9.6521 -38.9324
v  16.6667 10.0100 -41.5917
v  16.6667 9.6521 -44.2510
v  16.6667 8.6422 -46.6418
v  16.6667 7.0763 -48.6680
v  16.6667 5.0500 -50.2340
v  16.6667 2.6593 -51.2438
v  16.6667 -0.0000 -51.6017
v  16.6667 -2.6593 -51.2438
v  16.6667 -5.0500 -50.2340
v  16.6667 -7.0763 -48.6680
v  16.6667 -8.6422 -46.6418
v  16.6667 -9.6521 -44.2510
v  16.6667 -10.0100 -41.5917
v  16.6667 -9.6521 -38.9324
v  16.6667 -8.6422 -36.5417
v  16.6667 -7.0763 -34.5155
v  16.6667 -5.0500 -32.9495
v  16.6667 -2.6593 -31.9397
v  -0.0000 2.6593 -31.9397
v  -0.0000 0.0000 -31.5817
v  -0.0000 5.0500 -32.9495
v  -0.0000 7.0763 -34.5155
v  -0.0000 8.6422 -36.5417
v  -0.0000 9.6521 -38.9324
v  -0.0000 10.0100 -41.5917
v  -0.0000 9.6521 -44.2510
v  0.0000 8.6422 -46.6418
v  0.0000 7.0763 -48.6680
v  0.0000 5.0500 -50.2340
v  0.0000 2.6593 -51.2438
v  0.0000 -0.0000 -51.6017
v  0.0000 -2.6593 -51.2438
v  0.0000 -5.0500 -50.2340
v  0.0000 -7.0763 -48.6680
v  0.0000 -8.6422 -46.6418
v  0.0000 -9.6521 -44.2510
v  0.0000 -10.0100 -41.5917
v  0.0000 -9.6521 -38.9324
v  0.0000 -8.6422 -36.5417
v  0.0000 -7.0763 -34.5155
v  0.0000 -5.0500 -32.9495
v  -0.0000 -2.6593 -31.9397
v  -16.6667 2.6593 -31.9397
v  -16.6667 0.0000 -31.5817
v  -16.6667 5.0500 -32.9495
v  -16.6667 7.0763 -34.5155
v  -16.6667 8.6422 -36.5417
v  -16.6667 9.6521 -38.9324
v  -16.6667 10.0100 -41.5917
v  -16.6667 9.6521 -44.2510
v  -16.6667 8.6422 -46.6418
v  -16.6667 7.0763 -48.6680
v  -16.6667 5.0500 -50.2340
v  -16.6667 2.6593 -51.2438
v  -16.6667 -0.0000 -51.6017
v  -16.6667 -2.6593 -51.2438
v  -16.6667 -5.0500 -50.2340
v  -16.6667 -7.0763 -48.6680
v  -16.6667 -8.6422 -46.6418
v  -16.6667 -9.6521 -44.2510
v  -16.6667 -10.0100 -41.5917
v  -16.6667 -9.6521 -38.9324
v  -16.6667 -8.6422 -36.5417
v  -16.6667 -7.0763 -34.5155
v  -16.6667 -5.0500 -32.9495
v  -16.6667 -2.6593 -31.9397
v  -33.3333 2.6593 -31.9397
v  -33.3333 0.0000 -31.5817
v  -33.3333 5.0500 -32.9495
v  -33.3333 7.0763 -34.5155
v  -33.3333 8.6422 -36.5417
v  -33.3333 9.6521 -38.9324
v  -33.3333 10.0100 -41.5917
v  -33.3333 9.6521 -44.2510
v  -33.3333 8.6422 -46.6418
v  -33.3333 7.0763 -48.6680
v  -33.3333 5.0500 -50.2340
v  -33.3333 2.6593 -51.2438
v  -33.3333 -0.0000 -51.6017
v  -33.3333 -2.6593 -51.2438
v  -33.3333 -5.0500 -50.2340
v  -33.3333 -7.0763 -48.6680
v  -33.3333 -8.6422 -46.6418
v  -33.3333 -9.6521 -44.2510
v  -33.3333 -10.0100 -41.5917
v  -33.3333 -9.6521 -38.9324
v  -33.3333 -8.6422 -36.5417
v  -33.3333 -7.0763 -34.5155
v  -33.3333 -5.0500 -32.9495
v  -33.3333 -2.6593 -31.9397
v  -50.0000 2.6593 -31.9397
v  -50.0000 0.0000 -31.5817
v  -50.0000 5.0500 -32.9495
v  -50.0000 7.0763 -34.5155
v  -50.0000 8.6422 -36.5417
v  -50.0000 9.6521 -38.9324
v  -50.0000 10.0100 -41.5917
v  -50.0000 9.6521 -44.2510
v  -50.0000 8.6422 -46.6418
v  -50.0000 7.0763 -48.6680
v  -50.0000 5.0500 -50.2340
v  -50.0000 2.6593 -51.2438
v  -50.0000 -0.0000 -51.6017
v  -50.0000 -2.6593 -51.2438
v  -50.0000 -5.0500 -50.2340
v  -50.0000 -7.0763 -48.6680
v  -50.0000 -8.6422 -46.6418
v  -50.0000 -9.6521 -44.2510
v  -50.0000 -10.0100 -41.5917
v  -50.0000 -9.6521 -38.9324
v  -50.0000 -8.6422 -36.5417
v  -50.0000 -7.0763 -34.5155
v  -50.0000 -5.0500 -32.9495
v  -50.0000 -2.6593 -31.9397
v  50.0000 0.0000 -31.5917
v  33.3333 0.0000 -31.5917
v  33.3333 2.6567 -31.9493
v  50.0000 2.6567 -31.9493
v  33.3333 5.0450 -32.9581
v  50.0000 5.0450 -32.9581
v  33.3333 7.0692 -34.5225
v  50.0000 7.0692 -34.5225
v  33.3333 8.6336 -36.5468
v  50.0000 8.6336 -36.5468
v  33.3333 9.6424 -38.9351
v  50.0000 9.6424 -38.9351
v  33.3333 10.0000 -41.5917
v  50.0000 10.0000 -41.5917
v  33.3333 9.6424 -44.2484
v  50.0000 9.6424 -44.2484
v  33.3333 8.6336 -46.6367
v  50.0000 8.6336 -46.6367
v  33.3333 7.0692 -48.6609
v  50.0000 7.0692 -48.6609
v  33.3333 5.0450 -50.2253
v  50.0000 5.0450 -50.2253
v  33.3333 2.6567 -51.2342
v  50.0000 2.6567 -51.2342
v  33.3333 -0.0000 -51.5917
v  50.0000 -0.0000 -51.5917
v  33.3333 -2.6567 -51.2342
v  50.0000 -2.6567 -51.2342
v  33.3333 -5.0450 -50.2253
v  50.0000 -5.0450 -50.2253
v  33.3333 -7.0692 -48.6609
v  50.0000 -7.0692 -48.6609
v  33.3333 -8.6336 -46.6367
v  50.0000 -8.6336 -46.6367
v  33.3333 -9.6424 -44.2484
v  50.0000 -9.6424 -44.2484
v  33.3333 -10.0000 -41.5917
v  50.0000 -10.0000 -41.5917
v  33.3333 -9.6424 -38.9351
v  50.0000 -9.6424 -38.9351
v  33.3333 -8.6336 -36.5468
v  50.0000 -8.6336 -36.5468
v  33.3333 -7.0692 -34.5225
v  50.0000 -7.0692 -34.5225
v  33.3333 -5.0450 -32.9581
v  50.0000 -5.0450 -32.9581
v  33.3333 -2.6567 -31.9493
v  50.0000 -2.6567 -31.9493
v  16.6667 0.0000 -31.5917
v  16.6667 2.6567 -31.9493
v  16.6667 5.0450 -32.9581
v  16.6667 7.0692 -34.5225
v  16.6667 8.6336 -36.5468
v  16.6667 9.6424 -38.9351
v  16.6667 10.0000 -41.5917
v  16.6667 9.6424 -44.2484
v  16.6667 8.6336 -46.6367
v  16.6667 7.0692 -48.6609
v  16.6667 5.0450 -50.2253
v  16.6667 2.6567 -51.2342
v  16.6667 -0.0000 -51.5917
v  16.6667 -2.6567 -51.2342
v  16.6667 -5.0450 -50.2253
v  16.6667 -7.0692 -48.6609
v  16.6667 -8.6336 -46.6367
v  16.6667 -9.6424 -44.2484
v  16.6667 -10.0000 -41.5917
v  16.6667 -9.6424 -38.9351
v  16.6667 -8.6336 -36.5468
v  16.6667 -7.0692 -34.5225
v  16.6667 -5.0450 -32.9581
v  16.6667 -2.6567 -31.9493
v  -0.0000 0.0000 -31.5917
v  -0.0000 2.6567 -31.9493
v  -0.0000 5.0450 -32.9581
v  -0.0000 7.0692 -34.5225
v  -0.0000 8.6336 -36.5468
v  -0.0000 9.6424 -38.9351
v  -0.0000 10.0000 -41.5917
v  -0.0000 9.6424 -44.2484
v  0.0000 8.6336 -46.6367
v  0.0000 7.0692 -48.6609
v  0.0000 5.0450 -50.2253
v  0.0000 2.6567 -51.2342
v  0.0000 -0.0000 -51.5917
v  0.0000 -2.6567 -51.2342
v  0.0000 -5.0450 -50.2253
v  0.0000 -7.0692 -48.6609
v  0.0000 -8.6336 -46.6367
v  0.0000 -9.6424 -44.2484
v  0.0000 -10.0000 -41.5917
v  0.0000 -9.6424 -38.9351
v  0.0000 -8.6336 -36.5468
v  0.0000 -7.0692 -34.5225
v  0.0000 -5.0450 -32.9581
v  -0.0000 -2.6567 -31.9493
v  -16.6667 0.0000 -31.5917
v  -16.6667 2.6567 -31.9493
v  -16.6667 5.0450 -32.9581
v  -16.6667 7.0692 -34.5225
v  -16.6667 8.6336 -36.5468
v  -16.6667 9.6424 -38.9351
v  -16.6667 10.0000 -41.5917
v  -16.6667 9.6424 -44.2484
v  -16.6667 8.6336 -46.6367
v  -16.6667 7.0692 -48.6609
v  -16.6667 5.0450 -50.2253
v  -16.6667 2.6567 -51.2342
v  -16.6667 -0.0000 -51.5917
v  -16.6667 -2.6567 -51.2342
v  -16.6667 -5.0450 -50.2253
v  -16.6667 -7.0692 -48.6609
v  -16.6667 -8.6336 -46.6367
v  -16.6667 -9.6424 -44.2484
v  -16.6667 -10.0000 -41.5917
v  -16.6667 -9.6424 -38.9351
v  -16.6667 -8.6336 -36.5468
v  -16.6667 -7.0692 -34.5225
v  -16.6667 -5.0450 -32.9581
v  -16.6667 -2.6567 -31.9493
v  -33.3333 0.0000 -31.5917
v  -33.3333 2.6567 -31.9493
v  -33.3333 5.0450 -32.9581
v  -33.3333 7.0692 -34.5225
v  -33.3333 8.6336 -36.5468
v  -33.3333 9.6424 -38.9351
v  -33.3333 10.0000 -41.5917
v  -33.3333 9.6424 -44.2484
v  -33.3333 8.6336 -46.6367
v  -33.3333 7.0692 -48.6609
v  -33.3333 5.0450 -50.2253
v  -33.3333 2.6567 -51.2342
v  -33.3333 -0.0000 -51.5917
v  -33.3333 -2.6567 -51.2342
v  -33.3333 -5.0450 -50.2253
v  -33.3333 -7.0692 -48.6609
v  -33.3333 -8.6336 -46.6367
v  -33.3333 -9.6424 -44.2484
v  -33.3333 -10.0000 -41.5917
v  -33.3333 -9.6424 -38.9351
v  -33.3333 -8.6336 -36.5468
v  -33.3333 -7.0692 -34.5225
v  -33.3333 -5.0450 -32.9581
v  -33.3333 -2.6567 -31.9493
v  -50.0000 0.0000 -31.5917
v  -50.0000 2.6567 -31.9493
v  -50.0000 5.0450 -32.9581
v  -50.0000 7.0692 -34.5225
v  -50.0000 8.6336 -36.5468
v  -50.0000 9.6424 -38.9351
v  -50.0000 10.0000 -41.5917
v  -50.0000 9.6424 -44.2484
v  -50.0000 8.6336 -46.6367
v  -50.0000 7.0692 -48.6609
v  -50.0000 5.0450 -50.2253
v  -50.0000 2.6567 -51.2342
v  -50.0000 -0.0000 -51.5917
v  -50.0000 -2.6567 -51.2342
v  -50.0000 -5.0450 -50.2253
v  -50.0000 -7.0692 -48.6609
v  -50.0000 -8.6336 -46.6367
v  -50.0000 -9.6424 -44.2484
v  -50.0000 -10.0000 -41.5917
v  -50.0000 -9.6424 -38.9351
v  -50.0000 -8.6336 -36.5468
v  -50.0000 -7.0692 -34.5225
v  -50.0000 -5.0450 -32.9581
v  -50.0000 -2.6567 -31.9493
# 336 vertices

vn -0.0000 0.2636 0.9646
vn -0.0000 0.0000 1.0000
vn 0.0000 0.0000 1.0000
vn 0.0000 0.2636 0.9646
vn 0.0000 0.5045 0.8634
vn 0.0000 0.7071 0.7071
vn 0.0000 0.8634 0.5045
vn 0.0000 0.9646 0.2636
vn -0.0000 0.9646 0.2636
vn 0.0000 1.0000 -0.0000
vn -0.0000 1.0000 -0.0000
vn 0.0000 0.9646 -0.2636
vn 0.0000 0.8634 -0.5045
vn 0.0000 0.7071 -0.7071
vn 0.0000 0.5045 -0.8634
vn 0.0000 0.2636 -0.9646
vn 0.0000 -0.0000 -1.0000
vn -0.0000 -0.2636 -0.9646
vn 0.0000 -0.2636 -0.9646
vn 0.0000 -0.5045 -0.8634
vn 0.0000 -0.7071 -0.7071
vn 0.0000 -0.8634 -0.5045
vn 0.0000 -0.9646 -0.2636
vn -0.0000 -1.0000 0.0000
vn 0.0000 -1.0000 0.0000
vn -0.0000 -0.9646 0.2636
vn 0.0000 -0.9646 0.2636
vn 0.0000 -0.8634 0.5045
vn 0.0000 -0.7071 0.7071
vn 0.0000 -0.5045 0.8634
vn -0.0000 -0.2636 0.9646
vn 0.0000 -0.2636 0.9646
vn -0.0000 0.2636 -0.9646
vn -0.0000 -0.0000 -1.0000
vn -0.0000 -0.9646 -0.2636
vn -0.0000 0.9646 -0.2636
vn 1.0000 0.0000 -0.0000
vn -1.0000 0.0000 -0.0000
# 38 vertex normals

g Loft001
usemtl wire_028149177
s 257
f 1//1 2//2 3//3 4//4 
s 515
f 5//5 1//1 4//4 6//5 
s 1026
f 7//6 5//5 6//5 8//6 
s 514
f 9//7 7//6 8//6 10//7 
s 1026
f 11//8 9//7 10//7 12//9 
s 514
f 13//10 11//8 12//9 14//11 
s 1026
f 15//12 13//10 14//11 16//12 
s 514
f 17//13 15//12 16//12 18//13 
s 1026
f 19//14 17//13 18//13 20//14 
s 514
f 21//15 19//14 20//14 22//15 
s 1026
f 23//16 21//15 22//15 24//16 
s 514
f 25//17 23//16 24//16 26//17 
s 1026
f 27//18 25//17 26//17 28//19 
s 514
f 29//20 27//18 28//19 30//20 
s 1026
f 31//21 29//20 30//20 32//21 
s 514
f 33//22 31//21 32//21 34//22 
s 1026
f 35//23 33//22 34//22 36//23 
s 514
f 37//24 35//23 36//23 38//25 
s 1026
f 39//26 37//24 38//25 40//27 
s 514
f 41//28 39//26 40//27 42//28 
s 1026
f 43//29 41//28 42//28 44//29 
s 514
f 45//30 43//29 44//29 46//30 
s 1026
f 47//31 45//30 46//30 48//32 
s 515
f 2//2 47//31 48//32 3//3 
s 264
f 49//4 50//3 2//2 1//1 
s 536
f 51//5 49//4 1//1 5//5 
s 1040
f 52//6 51//5 5//5 7//6 
s 528
f 53//7 52//6 7//6 9//7 
s 1040
f 54//8 53//7 9//7 11//8 
s 528
f 55//10 54//8 11//8 13//10 
s 1040
f 56//12 55//10 13//10 15//12 
s 528
f 57//13 56//12 15//12 17//13 
s 1040
f 58//14 57//13 17//13 19//14 
s 528
f 59//15 58//14 19//14 21//15 
s 1040
f 60//33 59//15 21//15 23//16 
s 528
f 61//34 60//33 23//16 25//17 
s 1040
f 62//18 61//34 25//17 27//18 
s 528
f 63//20 62//18 27//18 29//20 
s 1040
f 64//21 63//20 29//20 31//21 
s 528
f 65//22 64//21 31//21 33//22 
s 1040
f 66//35 65//22 33//22 35//23 
s 528
f 67//24 66//35 35//23 37//24 
s 1040
f 68//27 67//24 37//24 39//26 
s 528
f 69//28 68//27 39//26 41//28 
s 1040
f 70//29 69//28 41//28 43//29 
s 528
f 71//30 70//29 43//29 45//30 
s 1040
f 72//32 71//30 45//30 47//31 
s 536
f 50//3 72//32 47//31 2//2 
s 257
f 73//4 74//3 50//3 49//4 
s 515
f 75//5 73//4 49//4 51//5 
s 1026
f 76//6 75//5 51//5 52//6 
s 514
f 77//7 76//6 52//6 53//7 
s 1026
f 78//8 77//7 53//7 54//8 
s 514
f 79//11 78//8 54//8 55//10 
s 1026
f 80//36 79//11 55//10 56//12 
s 514
f 81//13 80//36 56//12 57//13 
s 1026
f 82//14 81//13 57//13 58//14 
s 514
f 83//15 82//14 58//14 59//15 
s 1026
f 84//16 83//15 59//15 60//33 
s 514
f 85//17 84//16 60//33 61//34 
s 1026
f 86//19 85//17 61//34 62//18 
s 514
f 87//20 86//19 62//18 63//20 
s 1026
f 88//21 87//20 63//20 64//21 
s 514
f 89//22 88//21 64//21 65//22 
s 1026
f 90//23 89//22 65//22 66//35 
s 514
f 91//25 90//23 66//35 67//24 
s 1026
f 92//27 91//25 67//24 68//27 
s 514
f 93//28 92//27 68//27 69//28 
s 1026
f 94//29 93//28 69//28 70//29 
s 514
f 95//30 94//29 70//29 71//30 
s 1026
f 96//32 95//30 71//30 72//32 
s 515
f 74//3 96//32 72//32 50//3 
s 264
f 97//1 98//2 74//3 73//4 
s 536
f 99//5 97//1 73//4 75//5 
s 1040
f 100//6 99//5 75//5 76//6 
s 528
f 101//7 100//6 76//6 77//7 
s 1040
f 102//8 101//7 77//7 78//8 
s 528
f 103//10 102//8 78//8 79//11 
s 1040
f 104//12 103//10 79//11 80//36 
s 528
f 105//13 104//12 80//36 81//13 
s 1040
f 106//14 105//13 81//13 82//14 
s 528
f 107//15 106//14 82//14 83//15 
s 1040
f 108//16 107//15 83//15 84//16 
s 528
f 109//17 108//16 84//16 85//17 
s 1040
f 110//19 109//17 85//17 86//19 
s 528
f 111//20 110//19 86//19 87//20 
s 1040
f 112//21 111//20 87//20 88//21 
s 528
f 113//22 112//21 88//21 89//22 
s 1040
f 114//23 113//22 89//22 90//23 
s 528
f 115//25 114//23 90//23 91//25 
s 1040
f 116//27 115//25 91//25 92//27 
s 528
f 117//28 116//27 92//27 93//28 
s 1040
f 118//29 117//28 93//28 94//29 
s 528
f 119//30 118//29 94//29 95//30 
s 1040
f 120//32 119//30 95//30 96//32 
s 536
f 98//2 120//32 96//32 74//3 
s 257
f 121//4 122//2 98//2 97//1 
s 515
f 123//5 121//4 97//1 99//5 
s 1026
f 124//6 123//5 99//5 100//6 
s 514
f 125//7 124//6 100//6 101//7 
s 1026
f 126//8 125//7 101//7 102//8 
s 514
f 127//10 126//8 102//8 103//10 
s 1026
f 128//12 127//10 103//10 104//12 
s 514
f 129//13 128//12 104//12 105//13 
s 1026
f 130//14 129//13 105//13 106//14 
s 514
f 131//15 130//14 106//14 107//15 
s 1026
f 132//33 131//15 107//15 108//16 
s 514
f 133//34 132//33 108//16 109//17 
s 1026
f 134//18 133//34 109//17 110//19 
s 514
f 135//20 134//18 110//19 111//20 
s 1026
f 136//21 135//20 111//20 112//21 
s 514
f 137//22 136//21 112//21 113//22 
s 1026
f 138//23 137//22 113//22 114//23 
s 514
f 139//25 138//23 114//23 115//25 
s 1026
f 140//27 139//25 115//25 116//27 
s 514
f 141//28 140//27 116//27 117//28 
s 1026
f 142//29 141//28 117//28 118//29 
s 514
f 143//30 142//29 118//29 119//30 
s 1026
f 144//31 143//30 119//30 120//32 
s 515
f 122//2 144//31 120//32 98//2 
s 264
f 145//4 146//3 122//2 121//4 
s 536
f 147//5 145//4 121//4 123//5 
s 1040
f 148//6 147//5 123//5 124//6 
s 528
f 149//7 148//6 124//6 125//7 
s 1040
f 150//8 149//7 125//7 126//8 
s 528
f 151//10 150//8 126//8 127//10 
s 1040
f 152//12 151//10 127//10 128//12 
s 528
f 153//13 152//12 128//12 129//13 
s 1040
f 154//14 153//13 129//13 130//14 
s 528
f 155//15 154//14 130//14 131//15 
s 1040
f 156//16 155//15 131//15 132//33 
s 528
f 157//17 156//16 132//33 133//34 
s 1040
f 158//19 157//17 133//34 134//18 
s 528
f 159//20 158//19 134//18 135//20 
s 1040
f 160//21 159//20 135//20 136//21 
s 528
f 161//22 160//21 136//21 137//22 
s 1040
f 162//23 161//22 137//22 138//23 
s 528
f 163//25 162//23 138//23 139//25 
s 1040
f 164//27 163//25 139//25 140//27 
s 528
f 165//28 164//27 140//27 141//28 
s 1040
f 166//29 165//28 141//28 142//29 
s 528
f 167//30 166//29 142//29 143//30 
s 1040
f 168//32 167//30 143//30 144//31 
s 536
f 146//3 168//32 144//31 122//2 
s 257
f 169//17 170//17 171//19 172//19 
s 515
f 172//19 171//19 173//20 174//20 
s 1026
f 174//20 173//20 175//21 176//21 
s 514
f 176//21 175//21 177//22 178//22 
s 1026
f 178//22 177//22 179//23 180//23 
s 514
f 180//23 179//23 181//24 182//25 
s 1026
f 182//25 181//24 183//26 184//27 
s 514
f 184//27 183//26 185//28 186//28 
s 1026
f 186//28 185//28 187//29 188//29 
s 514
f 188//29 187//29 189//30 190//30 
s 1026
f 190//30 189//30 191//32 192//32 
s 514
f 192//32 191//32 193//3 194//3 
s 1026
f 194//3 193//3 195//4 196//4 
s 514
f 196//4 195//4 197//5 198//5 
s 1026
f 198//5 197//5 199//6 200//6 
s 514
f 200//6 199//6 201//7 202//7 
s 1026
f 202//7 201//7 203//8 204//9 
s 514
f 204//9 203//8 205//10 206//11 
s 1026
f 206//11 205//10 207//12 208//12 
s 514
f 208//12 207//12 209//13 210//13 
s 1026
f 210//13 209//13 211//14 212//14 
s 514
f 212//14 211//14 213//15 214//15 
s 1026
f 214//15 213//15 215//16 216//16 
s 515
f 216//16 215//16 170//17 169//17 
s 264
f 170//17 217//17 218//19 171//19 
s 536
f 171//19 218//19 219//20 173//20 
s 1040
f 173//20 219//20 220//21 175//21 
s 528
f 175//21 220//21 221//22 177//22 
s 1040
f 177//22 221//22 222//35 179//23 
s 528
f 179//23 222//35 223//24 181//24 
s 1040
f 181//24 223//24 224//27 183//26 
s 528
f 183//26 224//27 225//28 185//28 
s 1040
f 185//28 225//28 226//29 187//29 
s 528
f 187//29 226//29 227//30 189//30 
s 1040
f 189//30 227//30 228//32 191//32 
s 528
f 191//32 228//32 229//3 193//3 
s 1040
f 193//3 229//3 230//4 195//4 
s 528
f 195//4 230//4 231//5 197//5 
s 1040
f 197//5 231//5 232//6 199//6 
s 528
f 199//6 232//6 233//7 201//7 
s 1040
f 201//7 233//7 234//8 203//8 
s 528
f 203//8 234//8 235//10 205//10 
s 1040
f 205//10 235//10 236//12 207//12 
s 528
f 207//12 236//12 237//13 209//13 
s 1040
f 209//13 237//13 238//14 211//14 
s 528
f 211//14 238//14 239//15 213//15 
s 1040
f 213//15 239//15 240//16 215//16 
s 536
f 215//16 240//16 217//17 170//17 
s 257
f 217//17 241//17 242//19 218//19 
s 515
f 218//19 242//19 243//20 219//20 
s 1026
f 219//20 243//20 244//21 220//21 
s 514
f 220//21 244//21 245//22 221//22 
s 1026
f 221//22 245//22 246//23 222//35 
s 514
f 222//35 246//23 247//25 223//24 
s 1026
f 223//24 247//25 248//27 224//27 
s 514
f 224//27 248//27 249//28 225//28 
s 1026
f 225//28 249//28 250//29 226//29 
s 514
f 226//29 250//29 251//30 227//30 
s 1026
f 227//30 251//30 252//32 228//32 
s 514
f 228//32 252//32 253//3 229//3 
s 1026
f 229//3 253//3 254//4 230//4 
s 514
f 230//4 254//4 255//5 231//5 
s 1026
f 231//5 255//5 256//6 232//6 
s 514
f 232//6 256//6 257//7 233//7 
s 1026
f 233//7 257//7 258//8 234//8 
s 514
f 234//8 258//8 259//11 235//10 
s 1026
f 235//10 259//11 260//36 236//12 
s 514
f 236//12 260//36 261//13 237//13 
s 1026
f 237//13 261//13 262//14 238//14 
s 514
f 238//14 262//14 263//15 239//15 
s 1026
f 239//15 263//15 264//16 240//16 
s 515
f 240//16 264//16 241//17 217//17 
s 264
f 241//17 265//17 266//19 242//19 
s 536
f 242//19 266//19 267//20 243//20 
s 1040
f 243//20 267//20 268//21 244//21 
s 528
f 244//21 268//21 269//22 245//22 
s 1040
f 245//22 269//22 270//23 246//23 
s 528
f 246//23 270//23 271//25 247//25 
s 1040
f 247//25 271//25 272//27 248//27 
s 528
f 248//27 272//27 273//28 249//28 
s 1040
f 249//28 273//28 274//29 250//29 
s 528
f 250//29 274//29 275//30 251//30 
s 1040
f 251//30 275//30 276//32 252//32 
s 528
f 252//32 276//32 277//3 253//3 
s 1040
f 253//3 277//3 278//4 254//4 
s 528
f 254//4 278//4 279//5 255//5 
s 1040
f 255//5 279//5 280//6 256//6 
s 528
f 256//6 280//6 281//7 257//7 
s 1040
f 257//7 281//7 282//8 258//8 
s 528
f 258//8 282//8 283//10 259//11 
s 1040
f 259//11 283//10 284//12 260//36 
s 528
f 260//36 284//12 285//13 261//13 
s 1040
f 261//13 285//13 286//14 262//14 
s 528
f 262//14 286//14 287//15 263//15 
s 1040
f 263//15 287//15 288//16 264//16 
s 536
f 264//16 288//16 265//17 241//17 
s 257
f 265//17 289//17 290//19 266//19 
s 515
f 266//19 290//19 291//20 267//20 
s 1026
f 267//20 291//20 292//21 268//21 
s 514
f 268//21 292//21 293//22 269//22 
s 1026
f 269//22 293//22 294//23 270//23 
s 514
f 270//23 294//23 295//25 271//25 
s 1026
f 271//25 295//25 296//27 272//27 
s 514
f 272//27 296//27 297//28 273//28 
s 1026
f 273//28 297//28 298//29 274//29 
s 514
f 274//29 298//29 299//30 275//30 
s 1026
f 275//30 299//30 300//32 276//32 
s 514
f 276//32 300//32 301//3 277//3 
s 1026
f 277//3 301//3 302//4 278//4 
s 514
f 278//4 302//4 303//5 279//5 
s 1026
f 279//5 303//5 304//6 280//6 
s 514
f 280//6 304//6 305//7 281//7 
s 1026
f 281//7 305//7 306//8 282//8 
s 514
f 282//8 306//8 307//10 283//10 
s 1026
f 283//10 307//10 308//12 284//12 
s 514
f 284//12 308//12 309//13 285//13 
s 1026
f 285//13 309//13 310//14 286//14 
s 514
f 286//14 310//14 311//15 287//15 
s 1026
f 287//15 311//15 312//16 288//16 
s 515
f 288//16 312//16 289//17 265//17 
s 264
f 289//17 313//17 314//19 290//19 
s 536
f 290//19 314//19 315//20 291//20 
s 1040
f 291//20 315//20 316//21 292//21 
s 528
f 292//21 316//21 317//22 293//22 
s 1040
f 293//22 317//22 318//23 294//23 
s 528
f 294//23 318//23 319//25 295//25 
s 1040
f 295//25 319//25 320//27 296//27 
s 528
f 296//27 320//27 321//28 297//28 
s 1040
f 297//28 321//28 322//29 298//29 
s 528
f 298//29 322//29 323//30 299//30 
s 1040
f 299//30 323//30 324//32 300//32 
s 528
f 300//32 324//32 325//3 301//3 
s 1040
f 301//3 325//3 326//4 302//4 
s 528
f 302//4 326//4 327//5 303//5 
s 1040
f 303//5 327//5 328//6 304//6 
s 528
f 304//6 328//6 329//7 305//7 
s 1040
f 305//7 329//7 330//8 306//8 
s 528
f 306//8 330//8 331//10 307//10 
s 1040
f 307//10 331//10 332//12 308//12 
s 528
f 308//12 332//12 333//13 309//13 
s 1040
f 309//13 333//13 334//14 310//14 
s 528
f 310//14 334//14 335//15 311//15 
s 1040
f 311//15 335//15 336//16 312//16 
s 536
f 312//16 336//16 313//17 289//17 
s 4
f 4//37 3//37 169//37 172//37 
f 6//37 4//37 172//37 174//37 
f 8//37 6//37 174//37 176//37 
f 10//37 8//37 176//37 178//37 
f 12//37 10//37 178//37 180//37 
f 14//37 12//37 180//37 182//37 
f 16//37 14//37 182//37 184//37 
f 18//37 16//37 184//37 186//37 
f 20//37 18//37 186//37 188//37 
f 22//37 20//37 188//37 190//37 
f 24//37 22//37 190//37 192//37 
f 26//37 24//37 192//37 194//37 
f 28//37 26//37 194//37 196//37 
f 30//37 28//37 196//37 198//37 
f 32//37 30//37 198//37 200//37 
f 34//37 32//37 200//37 202//37 
f 36//37 34//37 202//37 204//37 
f 38//37 36//37 204//37 206//37 
f 40//37 38//37 206//37 208//37 
f 42//37 40//37 208//37 210//37 
f 44//37 42//37 210//37 212//37 
f 46//37 44//37 212//37 214//37 
f 48//37 46//37 214//37 216//37 
f 3//37 48//37 216//37 169//37 
s 1
f 146//38 145//38 314//38 313//38 
f 145//38 147//38 315//38 314//38 
f 147//38 148//38 316//38 315//38 
f 148//38 149//38 317//38 316//38 
f 149//38 150//38 318//38 317//38 
f 150//38 151//38 319//38 318//38 
f 151//38 152//38 320//38 319//38 
f 152//38 153//38 321//38 320//38 
f 153//38 154//38 322//38 321//38 
f 154//38 155//38 323//38 322//38 
f 155//38 156//38 324//38 323//38 
f 156//38 157//38 325//38 324//38 
f 157//38 158//38 326//38 325//38 
f 158//38 159//38 327//38 326//38 
f 159//38 160//38 328//38 327//38 
f 160//38 161//38 329//38 328//38 
f 161//38 162//38 330//38 329//38 
f 162//38 163//38 331//38 330//38 
f 163//38 164//38 332//38 331//38 
f 164//38 165//38 333//38 332//38 
f 165//38 166//38 334//38 333//38 
f 166//38 167//38 335//38 334//38 
f 167//38 168//38 336//38 335//38 
f 168//38 146//38 313//38 336//38 
# 336 polygons

